<svg xmlns="http://www.w3.org/2000/svg" viewBox="0 0 256 256" fill="#FFFFFF" aria-label="WhatsApp logo">
  <path d="M128 0C57.307 0 0 57.307 0 128c0 22.757 6.082 44.063 16.65 62.395L0 256l67.74-16.188C85.41 250.102 106.12 256 128 256c70.693 0 128-57.307 128-128S198.693 0 128 0zm0 232c-20.36 0-39.3-5.95-55.2-16.19l-3.95-2.57-39.75 9.49 9.6-38.77-2.58-4c-11.09-17.26-17.02-37.46-17.02-58.96C18.1 74.9 67 26 128 26c60.99 0 109.9 48.9 109.9 109.9S188.99 232 128 232zm62.27-68.18c-3.41-1.97-20.2-10.95-23.32-12.2-3.13-1.25-5.41-1.9-7.69 1.9-2.29 3.8-8.82 12.2-10.8 14.7-1.99 2.49-3.98 2.81-7.39 1.03-3.41-1.77-14.3-5.27-27.2-16.77-10.05-8.76-16.88-19.61-18.87-22.41-1.99-2.8-.21-4.93 1.56-6.72 1.6-1.61 3.57-4.2 5.16-6.3 1.69-2.1 2.29-3.6 3.41-6 .99-2.4.5-4.45-.25-6.22-.75-1.77-6.69-16.13-9.17-22.09-2.42-5.81-4.87-5.02-6.69-5.11-1.72-.09-3.69-.11-5.66-.11-1.97 0-5.16.74-7.85 3.49-2.7 2.76-10.22 9.93-10.22 24.19 0 14.25 10.55 28.02 12.05 29.94 1.49 1.92 20.8 32.03 50.33 45.02 7.05 3.06 12.48 4.89 16.77 6.09 7.12 2.04 13.6 1.57 18.72.95 5.71-.68 17.78-7.31 20.33-14.37 2.56-7.06 2.56-13.12 1.79-14.34-.77-1.22-2.8-1.98-6.21-3.76z"/>
</svg>
